<?xml version="1.0"?><svg version="1.2" baseProfile="tiny-ps" viewBox="0 0 512 512" xmlns="http://www.w3.org/2000/svg" xmlns:xlink="http://www.w3.org/1999/xlink"><title>Asem</title><g><g fill="#f3f3f3" transform="matrix(.1 0 0 -.1 0 512)"><path d="M661 5104l-54-14-58-36-58-35-42-47-42-47-29-61-29-61-9-59-10-59V435l10-59 9-59 29-61 29-61 42-47 42-47 58-35 58-35 58-16 59-15h3672l59 15 58 16 58 35 58 35 42 47 42 47 29 62 29 61 10 64 10 63-3 1850-3 1850-23 50-23 50-407 408-407 408-50 27-50 27-1555 2-1555 2-54-15z"/></g><g fill="#d4d8d6" transform="matrix(.1 0 0 -.1 0 512)"><path d="M661 5104l-54-14-58-36-58-35-42-47-42-47-29-61-29-61-9-59-10-59V435l10-59 9-59 29-61 29-61 42-47 42-47 58-35 58-35 58-16 59-15h3672l59 15 58 16 58 35 58 35 42 47 42 47 29 61 29 61 9 59 10 59v3355h-977l-55 19c-72 25-130 62-186 119l-45 47-29 61-29 61-9 59-10 59v905l-1367-1H715l-54-15zm2794-2239c84-23 215-86 288-139 34-24 94-77 133-119l72-75 41-69c51-86 85-171 107-271l18-77v-115l-1-115-22-90-22-90-44-92-45-91-60-75-60-75-60-49c-150-121-292-181-482-202l-86-10-96 10-95 10-76 24c-142 47-254 114-357 212l-46 46 39 49c80 101 145 248 169 379l12 64-1 110v110l-25 97-25 97-36 73c-20 40-59 103-85 140l-49 67 65 58c125 111 263 182 419 217l70 16 140-5 140-4 60-16z"/></g><g fill="#a2a6a4" transform="matrix(.1 0 0 -.1 0 512)"><path d="M3900 3761c0-10 10-33 23-52l23-34 29-14c17-8 204-58 418-112l387-97v328h-880v-19zm-2115-871c-101-14-186-39-280-85l-90-43-66-50c-157-119-270-292-325-498l-19-69v-145l1-145 22-78c99-346 365-590 712-653l75-13 80-1h80l90 19 90 18 78 33c165 68 291 172 390 321 63 96 100 174 128 274l20 70 6 101 6 100-12 82c-39 267-199 508-428 644l-79 47-90 30-89 29-90 11c-99 12-122 12-210 1z"/></g><g fill="#3c3a42" transform="matrix(.1 0 0 -.1 0 512)"><path d="M1721 2875c-243-53-434-181-571-384l-43-65-34-83c-19-46-41-116-50-156l-15-72v-230l16-70c34-146 88-255 182-374l56-69 69-56c124-98 257-160 401-186l61-11h203l79 16 80 16 78 34c109 47 177 90 257 163l70 63-55 79c-65 91-106 178-137 287l-23 78v300l23 80c29 99 90 223 148 301l45 59-58 54c-130 120-276 193-451 227l-74 14-96-1-97-1-64-13z"/></g></g></svg>